<svg width="472" height="534" viewBox="0 0 472 534" fill="none" xmlns="http://www.w3.org/2000/svg">
<circle cx="235" cy="87" r="87" fill="url(#paint0_linear_4036_34659)"/>
<circle cx="236" cy="241" r="51" fill="url(#paint1_linear_4036_34659)"/>
<circle cx="236" cy="364" r="38" fill="url(#paint2_linear_4036_34659)"/>
<g filter="url(#filter0_d_4036_34659)">
<path d="M27 244H445V303C445 413.457 355.457 503 245 503H227C116.543 503 27 413.457 27 303V244Z" fill="url(#paint3_linear_4036_34659)" shape-rendering="crispEdges"/>
<path d="M27 242H25V244V303C25 414.562 115.438 505 227 505H245C356.562 505 447 414.562 447 303V244V242H445H27Z" stroke="url(#paint4_linear_4036_34659)" stroke-width="4" shape-rendering="crispEdges"/>
</g>
<defs>
<filter id="filter0_d_4036_34659" x="0" y="221" width="472" height="313" filterUnits="userSpaceOnUse" color-interpolation-filters="sRGB">
<feFlood flood-opacity="0" result="BackgroundImageFix"/>
<feColorMatrix in="SourceAlpha" type="matrix" values="0 0 0 0 0 0 0 0 0 0 0 0 0 0 0 0 0 0 127 0" result="hardAlpha"/>
<feMorphology radius="1" operator="erode" in="SourceAlpha" result="effect1_dropShadow_4036_34659"/>
<feOffset dy="4"/>
<feGaussianBlur stdDeviation="12"/>
<feComposite in2="hardAlpha" operator="out"/>
<feColorMatrix type="matrix" values="0 0 0 0 0 0 0 0 0 0 0 0 0 0 0 0 0 0 0.04 0"/>
<feBlend mode="normal" in2="BackgroundImageFix" result="effect1_dropShadow_4036_34659"/>
<feBlend mode="normal" in="SourceGraphic" in2="effect1_dropShadow_4036_34659" result="shape"/>
</filter>
<linearGradient id="paint0_linear_4036_34659" x1="209.5" y1="35.5" x2="235" y2="138.5" gradientUnits="userSpaceOnUse">
<stop stop-color="#5C369B"/>
<stop offset="1" stop-color="#2C3489"/>
</linearGradient>
<linearGradient id="paint1_linear_4036_34659" x1="236" y1="190" x2="236" y2="292" gradientUnits="userSpaceOnUse">
<stop stop-color="#5C369B"/>
<stop offset="1" stop-color="#2C3489"/>
</linearGradient>
<linearGradient id="paint2_linear_4036_34659" x1="236" y1="326" x2="236" y2="402" gradientUnits="userSpaceOnUse">
<stop stop-color="#5C369B"/>
<stop offset="1" stop-color="#2C3489"/>
</linearGradient>
<linearGradient id="paint3_linear_4036_34659" x1="40.7425" y1="244" x2="288.422" y2="481.04" gradientUnits="userSpaceOnUse">
<stop stop-color="white" stop-opacity="0.4"/>
<stop offset="1" stop-color="white" stop-opacity="0.1"/>
</linearGradient>
<linearGradient id="paint4_linear_4036_34659" x1="68.8" y1="244" x2="403.532" y2="548.574" gradientUnits="userSpaceOnUse">
<stop stop-color="white" stop-opacity="0.5"/>
<stop offset="0.456723" stop-color="white" stop-opacity="0"/>
<stop offset="0.672326" stop-color="#EAE8EF" stop-opacity="0"/>
<stop offset="1" stop-color="#F3F1F8" stop-opacity="0.5"/>
</linearGradient>
</defs>
</svg>
