<svg width="138" height="37" viewBox="0 0 138 37" fill="none" xmlns="http://www.w3.org/2000/svg">
<path d="M25.7674 26.2249C25.4519 26.2249 25.2152 26.1472 25.0575 25.9918C24.8997 25.8364 24.7814 25.6421 24.663 25.4284L18.5689 10.6841C18.5295 10.6064 18.5098 10.5093 18.5098 10.3928C18.5098 10.1985 18.5887 10.0431 18.7267 9.90711C18.8648 9.77112 19.0423 9.69342 19.2592 9.69342H22.9078C23.1839 9.69342 23.4008 9.77112 23.5586 9.90711C23.7164 10.0625 23.815 10.1985 23.8544 10.3539L27.503 20.1057L31.191 10.3539C31.2304 10.1985 31.329 10.0625 31.4868 9.90711C31.6446 9.7517 31.8615 9.69342 32.1376 9.69342H35.7862C35.9834 9.69342 36.1609 9.77112 36.299 9.90711C36.4568 10.0431 36.5159 10.2179 36.5159 10.3928C36.5159 10.4899 36.4962 10.587 36.4568 10.6841L30.3627 25.4284C30.2838 25.6421 30.1457 25.8169 29.9879 25.9918C29.8302 26.1472 29.5738 26.2249 29.2385 26.2249H25.8266H25.7674Z" fill="#CC9933"/>
<path d="M45.2332 26.5551C43.4187 26.5551 41.9002 26.2637 40.6577 25.7004C39.4152 25.137 38.4685 24.3017 37.8177 23.2333C37.1669 22.1649 36.7922 20.8828 36.7133 19.4064C36.6936 18.979 36.6738 18.4934 36.6738 17.9689C36.6738 17.4249 36.6936 16.9587 36.7133 16.5508C36.7922 15.055 37.1866 13.7729 37.8769 12.7044C38.5671 11.636 39.5335 10.8201 40.7563 10.2568C41.9988 9.69343 43.4779 9.40204 45.2332 9.40204C46.9884 9.40204 48.507 9.69343 49.7298 10.2568C50.9723 10.8201 51.9386 11.636 52.6092 12.7044C53.2994 13.7729 53.6939 15.055 53.7728 16.5508C53.7925 16.9587 53.8122 17.4249 53.8122 17.9689C53.8122 18.5128 53.7925 18.9984 53.7728 19.4064C53.6939 20.8828 53.3192 22.1649 52.6683 23.2333C52.0175 24.3017 51.0709 25.1176 49.8284 25.7004C48.5859 26.2637 47.0673 26.5551 45.2332 26.5551ZM45.2332 22.6699C46.1995 22.6699 46.9095 22.3786 47.3434 21.8152C47.7773 21.2519 48.0337 20.3777 48.0928 19.2316C48.1126 18.9207 48.1323 18.4934 48.1323 17.9689C48.1323 17.4444 48.1126 17.017 48.0928 16.7062C48.0337 15.5795 47.7773 14.7247 47.3434 14.142C46.9095 13.5592 46.1995 13.2678 45.2332 13.2678C44.3062 13.2678 43.616 13.5592 43.1426 14.142C42.689 14.7247 42.4326 15.5795 42.3932 16.7062C42.3735 17.017 42.3538 17.4444 42.3538 17.9689C42.3538 18.4934 42.3735 18.9207 42.3932 19.2316C42.4326 20.3777 42.689 21.2324 43.1426 21.8152C43.5962 22.3786 44.3062 22.6699 45.2332 22.6699Z" fill="#CC9933"/>
<path d="M56.9481 26.2249C56.7114 26.2249 56.5142 26.1472 56.3761 25.9918C56.2183 25.8364 56.1592 25.6421 56.1592 25.4284V10.4899C56.1592 10.2762 56.2381 10.1014 56.3761 9.92655C56.5339 9.77114 56.7114 9.69344 56.9481 9.69344H60.6558C60.8925 9.69344 61.0897 9.77114 61.2474 9.92655C61.4052 10.082 61.4841 10.2762 61.4841 10.4899V11.7526C62.0363 11.0921 62.7266 10.587 63.5352 10.2179C64.3438 9.84884 65.251 9.67401 66.2568 9.67401H67.6768C67.9135 9.67401 68.1107 9.75171 68.2487 9.8877C68.4065 10.0431 68.4657 10.2179 68.4657 10.451V13.734C68.4657 13.9477 68.3868 14.1225 68.2487 14.2974C68.091 14.4528 67.9135 14.5305 67.6768 14.5305H64.541C63.6535 14.5305 62.983 14.7636 62.4899 15.2493C61.9969 15.7349 61.7602 16.3954 61.7602 17.2695V25.409C61.7602 25.6227 61.6813 25.7975 61.5236 25.9724C61.3658 26.1278 61.1686 26.2055 60.9319 26.2055H56.9283L56.9481 26.2249Z" fill="#CC9933"/>
<path d="M74.1261 32.2664C73.9289 32.2664 73.7711 32.2081 73.6331 32.0721C73.495 31.9361 73.4359 31.7807 73.4359 31.5865C73.4359 31.5476 73.4359 31.4893 73.4556 31.4116C73.4753 31.3339 73.495 31.2562 73.5345 31.1785L76.0589 25.1953L69.8662 10.7619C69.807 10.6065 69.7676 10.4899 69.7676 10.3733C69.807 10.1791 69.9056 10.0237 70.024 9.8877C70.162 9.75171 70.3198 9.67401 70.517 9.67401H74.205C74.4811 9.67401 74.6981 9.75171 74.8361 9.8877C74.9742 10.0237 75.0728 10.1791 75.1517 10.3539L78.8397 19.6007L82.6066 10.3539C82.6855 10.1791 82.8038 10.0237 82.9419 9.8877C83.0799 9.75171 83.2968 9.67401 83.573 9.67401H87.1821C87.3793 9.67401 87.5371 9.75171 87.6751 9.8877C87.8132 10.0237 87.8921 10.1791 87.8921 10.3539C87.8921 10.451 87.8526 10.6065 87.7935 10.7619L78.6622 31.5865C78.603 31.7613 78.4847 31.9167 78.3466 32.0527C78.1889 32.1887 77.9719 32.2664 77.6958 32.2664H74.1459H74.1261Z" fill="#CC9933"/>
<path d="M85.9787 32.2664C85.7618 32.2664 85.604 32.1887 85.4857 32.0527C85.3673 31.9167 85.3279 31.7419 85.3673 31.5282L89.9428 10.4122C89.9823 10.1985 90.0809 10.0237 90.2584 9.88772C90.4162 9.75174 90.6134 9.67404 90.8303 9.67404H92.3095C92.5264 9.67404 92.6842 9.75174 92.8025 9.88772C92.9011 10.0237 92.9406 10.1985 92.9011 10.4122L92.6053 11.8109C93.2956 11.1116 94.045 10.5288 94.8733 10.0626C95.6819 9.59633 96.7863 9.36322 98.1669 9.36322C99.3502 9.36322 100.336 9.57691 101.145 9.98485C101.934 10.3928 102.545 10.9561 102.959 11.6749C103.373 12.3937 103.65 13.1901 103.768 14.1031C103.886 15.0162 103.867 15.9875 103.689 16.9976C103.65 17.3279 103.59 17.6581 103.531 17.9495C103.472 18.2409 103.373 18.5711 103.275 18.9014C103.018 19.8726 102.663 20.8245 102.23 21.7375C101.796 22.6506 101.224 23.4664 100.553 24.2046C99.8827 24.9428 99.0741 25.5062 98.1274 25.9141C97.2005 26.3221 96.1158 26.5357 94.893 26.5357C93.5717 26.5357 92.5461 26.3026 91.777 25.8558C91.0078 25.409 90.4556 24.8263 90.0809 24.1464L88.4637 31.5282C88.4242 31.7419 88.3256 31.9167 88.1481 32.0527C87.9904 32.1887 87.7931 32.2664 87.5762 32.2664H85.9984H85.9787ZM94.538 23.9715C95.5636 23.9715 96.4511 23.7384 97.2005 23.2528C97.9499 22.7671 98.5613 22.1455 99.0347 21.3684C99.5277 20.5914 99.8827 19.7561 100.139 18.8819C100.238 18.5711 100.336 18.2603 100.395 17.9689C100.455 17.6775 100.514 17.3667 100.553 17.0559C100.691 16.1623 100.691 15.327 100.593 14.5694C100.494 13.7923 100.198 13.1707 99.7249 12.6851C99.2319 12.1994 98.4824 11.9663 97.4569 11.9663C96.3722 11.9663 95.4453 12.2188 94.6367 12.7045C93.8281 13.1901 93.1772 13.8118 92.6645 14.5694C92.1517 15.327 91.7967 16.0846 91.5797 16.8811C91.5009 17.2113 91.4023 17.6192 91.3036 18.0855C91.205 18.5517 91.1261 18.9596 91.067 19.3287C90.9289 20.0669 90.9486 20.8051 91.1064 21.5239C91.2642 22.2426 91.5995 22.8448 92.1517 23.311C92.7039 23.7773 93.4928 24.0104 94.5183 24.0104L94.538 23.9715ZM109.507 26.5552C108.324 26.5552 107.338 26.3415 106.568 25.9335C105.799 25.5256 105.208 24.9622 104.793 24.2435C104.379 23.5247 104.123 22.7283 104.044 21.8152C103.945 20.9022 103.965 19.9309 104.123 18.9208C104.182 18.5905 104.261 18.2603 104.32 17.9689C104.379 17.6775 104.458 17.3473 104.537 17.017C104.793 16.0263 105.148 15.0744 105.563 14.1809C105.997 13.2873 106.529 12.4714 107.2 11.7332C107.85 10.995 108.659 10.4316 109.586 10.0237C110.513 9.61576 111.617 9.40207 112.86 9.40207C114.24 9.40207 115.266 9.63518 115.976 10.082C116.666 10.5288 117.218 11.0921 117.613 11.7526L117.869 10.4511C117.909 10.2374 118.007 10.0626 118.185 9.92657C118.342 9.79059 118.54 9.71289 118.776 9.71289H120.236C120.453 9.71289 120.61 9.79059 120.729 9.92657C120.847 10.0626 120.887 10.2374 120.847 10.4511L117.593 25.5256C117.554 25.7393 117.455 25.9141 117.277 26.0501C117.12 26.1861 116.922 26.2638 116.706 26.2638H115.226C115.009 26.2638 114.852 26.1861 114.733 26.0501C114.635 25.9141 114.595 25.7393 114.635 25.5256L114.931 24.1852C114.26 24.8651 113.53 25.4285 112.761 25.8947C111.972 26.3415 110.888 26.5746 109.527 26.5746L109.507 26.5552ZM110.178 23.9715C111.262 23.9715 112.189 23.719 112.978 23.2333C113.767 22.7477 114.398 22.1261 114.891 21.3684C115.384 20.6108 115.739 19.8532 115.917 19.0568C115.996 18.7265 116.094 18.3186 116.193 17.8329C116.291 17.3473 116.37 16.9393 116.429 16.6091C116.607 15.8709 116.627 15.1327 116.469 14.414C116.331 13.6952 115.996 13.093 115.463 12.6268C114.931 12.1606 114.142 11.9274 113.096 11.9274C112.091 11.9274 111.223 12.1606 110.493 12.6462C109.763 13.1319 109.172 13.7535 108.718 14.5305C108.265 15.3076 107.89 16.1429 107.614 17.017C107.535 17.3279 107.456 17.6387 107.397 17.9301C107.338 18.2214 107.278 18.5323 107.239 18.8431C107.101 19.7367 107.081 20.572 107.14 21.3296C107.2 22.1066 107.476 22.7283 107.949 23.2139C108.422 23.6996 109.172 23.9327 110.178 23.9327V23.9715ZM121.439 32.2664C121.182 32.2664 121.005 32.1693 120.926 31.9556C120.847 31.7419 120.887 31.5088 121.084 31.2174L125.048 25.1176L121.892 10.5482C121.853 10.3345 121.873 10.1403 121.991 9.96542C122.09 9.79059 122.307 9.69346 122.642 9.69346H124.062C124.298 9.69346 124.476 9.73231 124.575 9.82944C124.673 9.92657 124.752 10.0626 124.772 10.218L127.257 21.8152L134.81 10.218C134.889 10.0626 135.008 9.946 135.165 9.82944C135.323 9.73231 135.501 9.67404 135.737 9.67404H137.414C137.611 9.67404 137.769 9.75174 137.907 9.92657C138.045 10.1014 138.025 10.3151 137.867 10.5871L124.022 31.703C123.924 31.8584 123.786 31.975 123.648 32.0916C123.51 32.1887 123.312 32.247 123.076 32.247H121.439V32.2664Z" fill="#2C3489"/>
<path fill-rule="evenodd" clip-rule="evenodd" d="M13.2444 3.53538C13.4022 4.29299 13.3233 5.07003 13.0472 5.73051L12.9683 5.67223C11.1736 4.17643 9.12249 2.4281 7.56445 0.8546C7.88 0.699193 8.21528 0.582637 8.57027 0.504934C10.7002 0.0775633 12.7908 1.41795 13.2247 3.53538H13.2444Z" fill="#2C3489"/>
<path fill-rule="evenodd" clip-rule="evenodd" d="M1.56836 9.32429C1.6078 9.22716 1.66697 9.13003 1.72614 9.0329C3.10667 10.179 5.05915 11.7914 6.14386 13.0346C6.06497 13.0929 5.96636 13.1512 5.88747 13.19C4.76332 12.0245 3.20528 10.7035 1.86419 9.57682C1.76558 9.49912 1.66697 9.40199 1.58808 9.32429H1.56836Z" fill="#CC9933"/>
<path fill-rule="evenodd" clip-rule="evenodd" d="M1.80566 9.51864C1.84511 9.40208 1.90427 9.30495 1.96344 9.20782C3.24537 10.2763 4.90201 11.6749 5.94728 12.8016C5.86839 12.8599 5.76978 12.9182 5.67117 12.957C4.56674 11.8498 3.12704 10.6065 1.86483 9.55749L1.82539 9.51864H1.80566Z" fill="#CC9933"/>
<path fill-rule="evenodd" clip-rule="evenodd" d="M21.6059 30.2072C21.6453 30.9065 21.882 34.2478 21.6848 35.899C21.5073 37.3171 20.4423 37.3171 20.0873 36.1709L18.7659 31.1396C19.752 30.8871 20.6987 30.5763 21.6059 30.2072ZM14.8413 9.71283C18.1545 14.7053 20.3437 20.5913 21.2115 26.1472C19.8506 26.7882 18.5687 27.1767 17.0896 27.507C15.1963 22.8642 12.0605 19.2315 8.33301 15.8126C8.80634 15.4241 9.29938 14.9967 9.79243 14.5499C10.2066 15.055 10.6208 15.6183 11.0546 16.2011C11.1138 16.1234 11.2716 16.0457 11.4096 15.9291C11.6069 15.7931 11.7844 15.6183 11.883 15.5212C11.4294 14.919 10.9955 14.3556 10.5616 13.8311C10.9166 13.4815 11.2913 13.1124 11.666 12.7627C12.3168 13.6174 12.9677 14.5305 13.6382 15.5989C13.7565 15.4823 14.2299 15.1909 14.4271 15.0355C13.6974 13.9283 13.0071 12.9958 12.3168 12.1216C13.2043 11.2475 14.0721 10.4122 14.8807 9.71283H14.8413ZM21.3692 27.3904C21.4284 27.8955 21.4678 28.4006 21.527 28.9056C20.4423 29.3719 19.397 29.7021 18.2334 29.9741C18.0362 29.5273 17.9179 29.0028 17.8587 28.5948C19.0815 28.3034 20.2648 27.8955 21.389 27.3904H21.3692Z" fill="#CC9933"/>
<path fill-rule="evenodd" clip-rule="evenodd" d="M3.58027 0.81579C4.15221 -0.194358 4.29026 -0.155506 4.94108 0.330142C8.5502 3.01092 10.9563 5.01179 13.9935 8.48903C13.8949 8.60559 13.6779 8.81927 13.461 9.01353C13.3032 9.14951 13.1257 9.26607 13.0665 9.3632C9.79269 5.55572 7.20911 3.26346 3.56055 0.835216L3.58027 0.81579Z" fill="#2C3489"/>
<path fill-rule="evenodd" clip-rule="evenodd" d="M3.02815 1.55396C6.65699 3.96277 9.33918 6.19675 12.4553 9.94595C12.3369 10.0819 12.1989 10.2762 12.0214 10.4705C11.1733 9.51858 10.2661 8.58614 9.20113 7.55657C8.76724 7.1292 8.66863 7.09034 8.13614 7.78968C9.37863 8.89695 10.4436 9.94595 11.4297 11.1309C11.2128 11.364 10.9761 11.6166 10.7197 11.8691C9.31946 10.2956 7.87976 8.97466 6.04561 7.38173C5.53284 6.93494 5.41451 6.89608 4.88202 7.71197C6.85421 9.26605 8.41225 10.723 10.0097 12.5685C9.00391 13.5398 7.95864 14.4528 7.34726 14.8219C6.38089 13.5203 3.71842 11.2475 1.84483 9.55744C-1.64595 6.41044 0.523462 4.91464 2.55482 2.13673C2.7126 1.92305 2.85065 1.72879 3.00843 1.55396H3.02815Z" fill="#2C3489"/>
</svg>
